<svg id="Group_1886" data-name="Group 1886" xmlns="http://www.w3.org/2000/svg" width="40" height="40" viewBox="0 0 40 40">
  <path id="Path_7299" data-name="Path 7299" d="M286.344,120.114h0a20,20,0,0,1-20-20h0a20,20,0,0,1,20-20h0a20,20,0,0,1,20,20h0A20,20,0,0,1,286.344,120.114Z" transform="translate(-266.345 -80.114)" fill="#4c76eb"/>
  <path id="Path_7300" data-name="Path 7300" d="M294.74,118.446h4.878V106.271h3.4l.363-4.077h-3.766V99.872c0-.961.193-1.341,1.126-1.341h2.64V94.3h-3.378c-3.63,0-5.267,1.594-5.267,4.644v3.25H292.2v4.127h2.537Z" transform="translate(-277.794 -86.373)" fill="#fff"/>
</svg>
