<svg xmlns="http://www.w3.org/2000/svg" width="32" height="31.969" viewBox="0 0 32 31.969">
  <g id="XMLID_226_" transform="translate(0 -0.244)">
    <path id="XMLID_1425_" d="M26.515,401.521a3.2,3.2,0,0,0,.282-1.316,3.9,3.9,0,0,0-1.4-2.581,11.556,11.556,0,0,0-1.235-1.078l-.553-.407-.553.407a11.547,11.547,0,0,0-1.235,1.078,3.9,3.9,0,0,0-1.4,2.581,3.2,3.2,0,0,0,.282,1.316H18.9a3.2,3.2,0,0,0,.282-1.316,3.9,3.9,0,0,0-1.4-2.581,11.556,11.556,0,0,0-1.235-1.078L16,396.139l-.553.407a11.546,11.546,0,0,0-1.235,1.078,3.9,3.9,0,0,0-1.4,2.581,3.2,3.2,0,0,0,.282,1.316H11.286a3.2,3.2,0,0,0,.282-1.316,3.9,3.9,0,0,0-1.4-2.581,11.554,11.554,0,0,0-1.235-1.078l-.553-.407-.553.407A11.546,11.546,0,0,0,6.6,397.624a3.9,3.9,0,0,0-1.4,2.581,3.2,3.2,0,0,0,.282,1.316H0v1.886H32v-1.886H26.515Zm-4.209-1.316a3.819,3.819,0,0,1,1.305-1.687c.143.126.3.273.461.434.673.681.851,1.117.851,1.252a1.308,1.308,0,1,1-2.617,0Zm-7.614,0A3.819,3.819,0,0,1,16,398.518c.143.126.3.273.461.434.673.681.851,1.117.851,1.252a1.308,1.308,0,1,1-2.617,0Zm-7.614,0a3.819,3.819,0,0,1,1.305-1.687c.143.126.3.273.461.434.673.681.851,1.117.851,1.252a1.308,1.308,0,1,1-2.617,0Z" transform="translate(0 -371.193)" fill="#cb4337"/>
    <path id="XMLID_1430_" d="M6.812,135.4a3.615,3.615,0,0,0,3.621,3.6H27.189a3.615,3.615,0,0,0,3.621-3.6v-6.644h3.812v-5.4H3v5.4H6.812Zm24-10.179h1.937v1.671H30.811Zm-22.123,0H28.936V135.4a1.743,1.743,0,0,1-1.746,1.736H10.434A1.743,1.743,0,0,1,8.687,135.4Zm-3.812,1.671v-1.671H6.812v1.671Z" transform="translate(-2.811 -115.371)" fill="#cb4337"/>
    <path id="XMLID_1433_" d="M149.177,4.558a.579.579,0,0,1,.116-.376,2.4,2.4,0,0,0,.363-1.309,2.4,2.4,0,0,0-.363-1.309.58.58,0,0,1-.116-.376V.244h-1.886v.943a2.4,2.4,0,0,0,.363,1.309.58.58,0,0,1,.116.376.579.579,0,0,1-.116.376,2.4,2.4,0,0,0-.363,1.309V5.5h1.886Z" transform="translate(-138.09 0)" fill="#cb4337"/>
    <path id="XMLID_1434_" d="M239.07,4.558a.579.579,0,0,1,.116-.376,2.4,2.4,0,0,0,.363-1.309,2.4,2.4,0,0,0-.363-1.309.58.58,0,0,1-.116-.376V.244h-1.886v.943a2.406,2.406,0,0,0,.363,1.309.58.58,0,0,1,.116.376.579.579,0,0,1-.116.376,2.406,2.406,0,0,0-.363,1.309V5.5h1.886Z" transform="translate(-222.367 0)" fill="#cb4337"/>
    <path id="XMLID_1435_" d="M328.963,4.558a.58.58,0,0,1,.116-.376,2.4,2.4,0,0,0,.363-1.309,2.4,2.4,0,0,0-.363-1.309.58.58,0,0,1-.116-.376V.244h-1.886v.943A2.406,2.406,0,0,0,327.44,2.5a.579.579,0,0,1,.116.376.579.579,0,0,1-.116.376,2.406,2.406,0,0,0-.363,1.309V5.5h1.886Z" transform="translate(-306.644 0)" fill="#cb4337"/>
  </g>
</svg>
