<svg xmlns="http://www.w3.org/2000/svg" width="37.839" height="31.347" viewBox="0 0 37.839 31.347">
  <path id="Path_6760" data-name="Path 6760" d="M91.5,171.034l-5.218-8.091a2.175,2.175,0,0,0-1.834-1H61.431a2.175,2.175,0,0,0-1.832,1l-5.234,8.092a2.206,2.206,0,0,0,.2,2.655L71.3,192.554a2.183,2.183,0,0,0,1.631.735h0a2.183,2.183,0,0,0,1.632-.735L91.3,173.686A2.207,2.207,0,0,0,91.5,171.034Zm-8.108-7.211-4.388,6.814-4.391-6.814Zm-6.109,7.6H68.579l4.353-6.755Zm-6.037-7.6-4.378,6.795-4.377-6.795Zm-10.487.775,4.4,6.83H56.343Zm-4.022,8.711h9.427l4.985,16.247Zm16.193,15.665-4.806-15.665h9.612Zm1.781.583L79.7,173.309h9.428Zm6.014-18.129,4.4-6.825,4.4,6.825Z" transform="translate(-54.014 -161.942)" fill="#cb4337"/>
</svg>
