<svg xmlns="http://www.w3.org/2000/svg" width="48" height="48" viewBox="0 0 48 48">
  <g id="sid-view" transform="translate(0)">
    <path id="Path_30" data-name="Path 30" d="M47.679,134.892c-4.363-5.438-13.6-11.785-23.68-11.785-10.117,0-19.354,6.39-23.68,11.785a1.47,1.47,0,0,0,0,1.832C4.786,142.294,14.044,148.51,24,148.51c10.309,0,19.506-6.583,23.68-11.785A1.471,1.471,0,0,0,47.679,134.892Zm-14.09.916A9.714,9.714,0,0,1,24,145.621,9.815,9.815,0,0,1,24,126,9.714,9.714,0,0,1,33.589,135.808Zm-30.271,0a34.126,34.126,0,0,1,10.8-7.677,12.9,12.9,0,0,0,0,15.351,33.476,33.476,0,0,1-10.8-7.674Zm30.564,7.676a12.9,12.9,0,0,0,0-15.351,33.482,33.482,0,0,1,10.8,7.674A34.123,34.123,0,0,1,33.882,143.485Z" transform="translate(0 -111.808)" fill="#cb4337"/>
    <path id="Path_31" data-name="Path 31" d="M204,208.681A4.681,4.681,0,1,0,208.681,204,4.686,4.686,0,0,0,204,208.681Zm6.608,0a1.927,1.927,0,1,1-1.927-1.927A1.93,1.93,0,0,1,210.608,208.681Z" transform="translate(-184.681 -184.681)" fill="#cb4337"/>
    <path id="Path_32" data-name="Path 32" d="M241.377,5.966a1.377,1.377,0,0,0,1.377-1.377V1.377a1.377,1.377,0,1,0-2.753,0V4.589A1.377,1.377,0,0,0,241.377,5.966Z" transform="translate(-217.377)" fill="#4337cb"/>
    <path id="Path_33" data-name="Path 33" d="M337.624,27.814A1.377,1.377,0,0,0,339.5,27.3l1.832-3.212a1.377,1.377,0,1,0-2.392-1.364l-1.832,3.212A1.377,1.377,0,0,0,337.624,27.814Z" transform="translate(-305.133 -20.007)" fill="#4337cb"/>
    <path id="Path_34" data-name="Path 34" d="M125.117,27.3a1.377,1.377,0,1,0,2.392-1.364l-1.832-3.212a1.377,1.377,0,0,0-2.392,1.364Z" transform="translate(-111.487 -20.007)" fill="#4337cb"/>
    <path id="Path_35" data-name="Path 35" d="M241.377,445A1.377,1.377,0,0,0,240,446.377v3.212a1.377,1.377,0,1,0,2.753,0v-3.212A1.377,1.377,0,0,0,241.377,445Z" transform="translate(-217.377 -402.966)" fill="#4337cb"/>
    <path id="Path_36" data-name="Path 36" d="M127,423.148a1.377,1.377,0,0,0-1.878.514l-1.832,3.212a1.377,1.377,0,0,0,2.392,1.364l1.832-3.212A1.377,1.377,0,0,0,127,423.148Z" transform="translate(-111.487 -382.955)" fill="#4337cb"/>
    <path id="Path_37" data-name="Path 37" d="M339.5,423.661a1.377,1.377,0,1,0-2.392,1.364l1.832,3.212a1.377,1.377,0,1,0,2.392-1.364Z" transform="translate(-305.133 -382.954)" fill="#4337cb"/>
  </g>
</svg>
