<svg xmlns="http://www.w3.org/2000/svg" width="48" height="47.304" viewBox="0 0 48 47.304">
  <path id="Path_20996" data-name="Path 20996" d="M47.827,41.352l-2.788-8.123A20.294,20.294,0,0,0,41.275,10.1,20.263,20.263,0,0,0,6.55,24.045,14.8,14.8,0,0,0,2.066,42.219L.145,47.814a2.643,2.643,0,0,0,2.487,3.5A2.655,2.655,0,0,0,3.5,51.17l5.588-1.923A14.822,14.822,0,0,0,15.4,50.675h.023A14.746,14.746,0,0,0,27.353,44.6a20.319,20.319,0,0,0,8.378-2.053l8.114,2.791a3.156,3.156,0,0,0,1.027.173,3.141,3.141,0,0,0,2.955-4.161Zm-32.4,6.462h-.019a11.937,11.937,0,0,1-5.55-1.379,1.428,1.428,0,0,0-1.132-.088l-5.73,1.971,1.969-5.737a1.432,1.432,0,0,0-.088-1.134A11.938,11.938,0,0,1,6.816,27.62,20.364,20.364,0,0,0,23.782,44.382,11.874,11.874,0,0,1,15.425,47.815Zm29.634-5.246a.259.259,0,0,1-.286.066l-8.686-2.988a1.427,1.427,0,0,0-1.132.088,17.435,17.435,0,0,1-8.1,2.014h-.027A17.5,17.5,0,0,1,9.407,24.594a17.429,17.429,0,0,1,17.7-17.72A17.447,17.447,0,0,1,42.229,32.452a1.432,1.432,0,0,0-.088,1.134l2.985,8.7A.26.26,0,0,1,45.059,42.568Z" transform="translate(0 -4.011)" fill="#cb4337"/>
</svg>
