<svg xmlns="http://www.w3.org/2000/svg" width="171.405" height="91.633" viewBox="0 0 171.405 91.633">
  <g id="Group_1" data-name="Group 1" transform="translate(-2579.015 -16)">
    <path id="Path_7" data-name="Path 7" d="M20.707-57.948a4.129,4.129,0,0,0,1.285-.867A12.766,12.766,0,0,1,30.279-61.9a11.215,11.215,0,0,1,7.934,3.244,13.98,13.98,0,0,1,4.3,10.632,18.167,18.167,0,0,1-6.97,14.936A18.147,18.147,0,0,1,23.79-29.04a19.864,19.864,0,0,1-6.022-.851,12.059,12.059,0,0,1-4.13-1.988,1.647,1.647,0,0,0-.771-.289c-.236,0,1.092,1.87,0,2.277-.557.214-5.9,0-6.646,0-.536,0-.055-2.467,0-4.292.065-2.184-.089-4.167,0-5.392.15-2.056,0-5.612,0-10.066v-9.867c0-1.914-.76-21.528,0-26.861.082-.592-.212-1.031,0-1.031C6.221-87.4,20.428-57.948,20.707-57.948Zm2.762,5.717a2.762,2.762,0,0,0-2.505,1.188,7.3,7.3,0,0,0-.61,3.662A64.482,64.482,0,0,0,20.867-37.2a2.584,2.584,0,0,0,2.73,2.441,3.932,3.932,0,0,0,3.565-1.991,11.171,11.171,0,0,0,1.221-5.782q0-5.589-2.056-8.158A3.761,3.761,0,0,0,23.469-52.23Z" transform="translate(2663.824 116.426)" fill="#cb4337"/>
    <path id="Path_9" data-name="Path 9" d="M20.752-58.492a4.129,4.129,0,0,1,1.285.867,12.766,12.766,0,0,0,8.287,3.084,11.215,11.215,0,0,0,7.934-3.244,13.98,13.98,0,0,0,4.3-10.632,18.167,18.167,0,0,0-6.97-14.936A18.147,18.147,0,0,0,23.835-87.4a19.864,19.864,0,0,0-6.022.851,12.059,12.059,0,0,0-4.13,1.988,1.647,1.647,0,0,1-.771.289c-.236,0,1.092-1.87,0-2.277-.557-.214-5.9,0-6.646,0-.536,0-.055,2.467,0,4.292.065,2.184-.089,4.167,0,5.392.15,2.056,0,5.612,0,10.066v9.867c0,1.914.733,16.542,1.493,21.874.082.592-.212,1.031,0,1.031C7.759-34.026,20.474-58.492,20.752-58.492Zm2.762-5.717A2.762,2.762,0,0,1,21.009-65.4a7.3,7.3,0,0,1-.61-3.662,64.482,64.482,0,0,1,.514-10.182,2.584,2.584,0,0,1,2.73-2.441,3.932,3.932,0,0,1,3.565,1.991,11.171,11.171,0,0,1,1.221,5.782q0,5.589-2.056,8.158A3.761,3.761,0,0,1,23.514-64.209Z" transform="translate(2573 141.659)" fill="#cb4337"/>
    <path id="Path_8" data-name="Path 8" d="M15.269,0a15.187,15.187,0,0,1,7.437,1.975,16.574,16.574,0,0,1,7.24,7.9,19.2,19.2,0,0,1,1.775,8.166,16.4,16.4,0,0,1-5.775,12.943A14.969,14.969,0,0,1,15.86,34.818,14.71,14.71,0,0,1,5.212,30.543Q0,25.5,0,17.07,0,8.845,4.761,4.157A14.328,14.328,0,0,1,15.269,0Zm-.648,8.786Q12,8.786,12,13.444a26.07,26.07,0,0,0,2.226,10.967Q15.1,26.3,16.565,26.3q2.564,0,2.564-4.747a31.814,31.814,0,0,0-.549-5.675,21.754,21.754,0,0,0-1.394-4.909Q16.255,8.874,14.621,8.786Z" transform="matrix(0.985, 0.174, -0.174, 0.985, 2719.18, 50.984)" fill="#cb4337"/>
    <text id="c" transform="translate(2625.71 85)" fill="#cb4337" font-size="64" font-family="SegoeUIBlack, Segoe UI"><tspan x="0" y="0">c</tspan></text>
    <rect id="Rectangle_1" data-name="Rectangle 1" width="26.97" height="12.498" transform="translate(2697.412 65.469)" fill="#cb4337"/>
    <rect id="Rectangle_2" data-name="Rectangle 2" width="26.97" height="12.498" transform="translate(2609.922 65.469)" fill="#cb4337"/>
  </g>
</svg>
