<svg id="instagram" xmlns="http://www.w3.org/2000/svg" xmlns:xlink="http://www.w3.org/1999/xlink" width="40" height="40" viewBox="0 0 40 40">
  <defs>
    <linearGradient id="linear-gradient" x1="0.084" y1="0.916" x2="0.916" y2="0.084" gradientUnits="objectBoundingBox">
      <stop offset="0" stop-color="#ffd600"/>
      <stop offset="0.5" stop-color="#ff0100"/>
      <stop offset="1" stop-color="#d800b9"/>
    </linearGradient>
    <linearGradient id="linear-gradient-2" x1="0.146" y1="0.854" x2="0.854" y2="0.146" gradientUnits="objectBoundingBox">
      <stop offset="0" stop-color="#ff6400"/>
      <stop offset="0.5" stop-color="#ff0100"/>
      <stop offset="1" stop-color="#fd0056"/>
    </linearGradient>
    <linearGradient id="linear-gradient-3" x1="0.146" y1="0.854" x2="0.854" y2="0.146" gradientUnits="objectBoundingBox">
      <stop offset="0" stop-color="#f30072"/>
      <stop offset="1" stop-color="#e50097"/>
    </linearGradient>
  </defs>
  <path id="Path_54" data-name="Path 54" d="M39.88,11.754A14.683,14.683,0,0,0,38.95,6.9a9.8,9.8,0,0,0-2.307-3.542A9.8,9.8,0,0,0,33.1,1.049,14.68,14.68,0,0,0,28.246.121C26.113.023,25.431,0,20,0s-6.113.023-8.246.12A14.685,14.685,0,0,0,6.9,1.05,9.8,9.8,0,0,0,3.357,3.357,9.8,9.8,0,0,0,1.049,6.9a14.682,14.682,0,0,0-.929,4.855C.023,13.887,0,14.568,0,20s.023,6.113.121,8.246A14.679,14.679,0,0,0,1.05,33.1a9.8,9.8,0,0,0,2.307,3.542A9.8,9.8,0,0,0,6.9,38.949a14.675,14.675,0,0,0,4.855.93c2.133.1,2.814.12,8.246.12s6.113-.023,8.246-.12a14.677,14.677,0,0,0,4.855-.93A10.225,10.225,0,0,0,38.95,33.1a14.678,14.678,0,0,0,.93-4.855c.1-2.133.12-2.814.12-8.246s-.023-6.113-.12-8.246Zm-3.6,16.328a11.066,11.066,0,0,1-.688,3.714,6.623,6.623,0,0,1-3.8,3.8,11.065,11.065,0,0,1-3.714.688c-2.108.1-2.741.117-8.082.117s-5.973-.02-8.082-.117A11.069,11.069,0,0,1,8.2,35.591a6.2,6.2,0,0,1-2.3-1.5,6.2,6.2,0,0,1-1.5-2.3,11.066,11.066,0,0,1-.688-3.714C3.624,25.973,3.6,25.34,3.6,20s.02-5.973.117-8.082A11.074,11.074,0,0,1,4.408,8.2,6.2,6.2,0,0,1,5.9,5.9a6.192,6.192,0,0,1,2.3-1.5,11.064,11.064,0,0,1,3.714-.689C14.027,3.624,14.66,3.6,20,3.6h0c5.34,0,5.973.02,8.082.117a11.068,11.068,0,0,1,3.714.688,6.2,6.2,0,0,1,2.3,1.5,6.192,6.192,0,0,1,1.5,2.3,11.056,11.056,0,0,1,.689,3.714c.1,2.109.117,2.741.117,8.082S36.376,25.973,36.279,28.082Zm0,0" transform="translate(0 0)" fill="url(#linear-gradient)"/>
  <path id="Path_55" data-name="Path 55" d="M134.806,124.539a10.267,10.267,0,1,0,10.267,10.267A10.267,10.267,0,0,0,134.806,124.539Zm0,16.931a6.664,6.664,0,1,1,6.665-6.665A6.665,6.665,0,0,1,134.806,141.47Zm0,0" transform="translate(-114.806 -114.806)" fill="url(#linear-gradient-2)"/>
  <path id="Path_56" data-name="Path 56" d="M366.731,91.026a2.4,2.4,0,1,1-2.4-2.4A2.4,2.4,0,0,1,366.731,91.026Zm0,0" transform="translate(-333.655 -81.702)" fill="url(#linear-gradient-3)"/>
</svg>
