<svg xmlns="http://www.w3.org/2000/svg" width="32" height="39.553" viewBox="0 0 32 39.553">
  <g id="Group_50627" data-name="Group 50627" transform="translate(-1843 -399)">
    <path id="Path_23757" data-name="Path 23757" d="M78.015,6.877a15.97,15.97,0,0,0-26.257,0A15.973,15.973,0,0,0,49.9,21.593a12.579,12.579,0,0,0,2.318,3.828L63.833,39.066a1.382,1.382,0,0,0,2.106,0L77.553,25.425A12.592,12.592,0,0,0,79.871,21.6,15.976,15.976,0,0,0,78.015,6.877Zm-.734,13.756a9.865,9.865,0,0,1-1.824,2.988l-.006.007L64.886,36.037,54.316,23.621a9.871,9.871,0,0,1-1.827-3A13.212,13.212,0,0,1,54.033,8.45a13.2,13.2,0,0,1,21.707,0A13.214,13.214,0,0,1,77.281,20.633Z" transform="translate(1794.114 399)" fill="#cb4337"/>
    <g id="location" transform="translate(1770.809 403)">
      <g id="Group_50622" data-name="Group 50622" transform="translate(81.191 5.191)">
        <path id="Path_23756" data-name="Path 23756" d="M82.691,17.191h12a1.5,1.5,0,0,0,1.5-1.5,7.513,7.513,0,0,0-6-7.349V6.691a1.5,1.5,0,0,0-3,0V8.342a7.513,7.513,0,0,0-6,7.349A1.5,1.5,0,0,0,82.691,17.191Zm6-6a4.508,4.508,0,0,1,4.243,3H84.448A4.508,4.508,0,0,1,88.691,11.191Z" transform="translate(-81.191 -5.191)" fill="#cb4337"/>
      </g>
    </g>
  </g>
</svg>
