<svg xmlns="http://www.w3.org/2000/svg" width="202.099" height="92.686" viewBox="0 0 202.099 92.686">
  <g id="Logo_-_Web_Footer" data-name="Logo - Web Footer" transform="translate(-1577.901 -12)">
    <text id="أول_صحافة_متخصصة_بالمطاعم" data-name="أول صحافة متخصصة بالمطاعم" transform="translate(1682 100.686)" fill="#fff" font-size="16" font-family="DINNextLTArabic-Bold, DIN Next LT Arabic" font-weight="700"><tspan x="-97.44" y="0">أول صحافة متخصصة بالمطاعم</tspan></text>
    <g id="Group_51476" data-name="Group 51476" transform="translate(291 11.686)">
      <g id="Capture_صحافة" data-name="Capture صحافة" transform="translate(604.232 -456.165)">
        <path id="Path_23772" data-name="Path 23772" d="M682.831,552.207c0-14.441.016-28.584-.005-42.722-.01-5.51-.094-11.025-.157-16.535-.021-2.032.622-2.726,2.669-2.732,3.807-.01,7.615.026,11.417-.016,1.525-.016,2.695.324,2.94,2.021.491.157.731-.178,1-.371,6.179-4.424,16.164-3.3,21.053,2.444a17.906,17.906,0,0,1,3.943,8.858c.151.914.507,1.206,1.415,1.2,3.807-.042,7.615-.031,11.417-.005a1.209,1.209,0,0,0,1.41-1.029c2.533-8.3,8.294-12.728,16.812-13.825,6.45-.83,12.441.167,17.663,4.309a16.655,16.655,0,0,1,4.57,5.463c.8,1.572.575,2.376-.961,3.186q-4.622,2.436-9.286,4.8c-1.572.794-2.277.548-3.212-.951a5.124,5.124,0,0,0-3.426-2.726c-3.181-.574-5.265.695-5.724,3.933a28.533,28.533,0,0,0,.256,11.422,4.6,4.6,0,0,0,7.479,2.12,6.641,6.641,0,0,0,1.541-1.948,1.807,1.807,0,0,1,2.726-.893c3.348,1.682,6.68,3.379,9.981,5.144,1.243.663,1.316,1.75.663,2.935a18.2,18.2,0,0,1-10.806,8.9,25.071,25.071,0,0,1-18.274-.951,17.639,17.639,0,0,1-9.881-11.6c-.3-1-.679-1.4-1.791-1.379-3.593.084-7.2.068-10.79.01-1.107-.016-1.6.209-1.838,1.447a17.228,17.228,0,0,1-6.22,10.821c-4.826,3.781-15.407,4.2-20.1-.94-.789-.867-1.045-.225-1.462.329q-7.121,9.472-14.263,18.927A5.79,5.79,0,0,1,682.831,552.207Z" transform="translate(0 -15.727)" fill="#fff"/>
        <path id="Path_23773" data-name="Path 23773" d="M893.541,517.393c-.188,2.1-1.4,2.423-2.977,2.4-3.86-.047-7.714-.005-11.574-.021-1.849-.005-2.5-.611-2.5-2.392q-.016-30.028-.005-60.056c0-.183.031-.371.073-.846,3.05,4.147,5.928,8.059,8.806,11.976q3.188,4.332,6.366,8.675c.444.611.752,1,1.509.23,3.551-3.583,8.038-4.116,12.743-3.614,7.8.836,11.929,6.4,13.313,12.9.334,1.577.825,2.209,2.57,2.126,3.588-.172,7.192-.078,10.79-.031a1.364,1.364,0,0,0,1.6-1.191c2.267-7.824,8.539-12.791,16.781-13.673a28.82,28.82,0,0,1,14.248,1.65,17.258,17.258,0,0,1,10.644,12.023,37.639,37.639,0,0,1,.209,18.494,17.479,17.479,0,0,1-12.409,13.412,27.022,27.022,0,0,1-18.943-.632,16.982,16.982,0,0,1-10.451-11.788c-.319-1.191-.877-1.389-1.938-1.374-3.6.052-7.2.131-10.79-.031-1.593-.073-2.021.554-2.261,1.911a17.481,17.481,0,0,1-3.954,8.336c-2.779,3.275-6.44,4.627-10.592,4.873C900.749,520.986,896.91,520.344,893.541,517.393Z" transform="translate(-92.592 0)" fill="#fff"/>
        <path id="Path_23774" data-name="Path 23774" d="M684.164,549.925c0-6.962.021-13.919-.005-20.881-.042-11.542-.089-23.085-.209-34.622-.016-1.567.392-2.084,2.006-2.026,3.593.12,7.192.037,10.79.037,2.073,0,2.073.005,2.079,2.047v1.974a12.367,12.367,0,0,1,6.941-4.627c10.017-2.194,17.272,2.523,19.225,12.66.324,1.687.935,2.11,2.58,2.058,4.011-.131,8.027-.063,12.039-.026.862.005,1.227-.209,1.478-1.123,2.308-8.393,8.377-13.266,17.146-13.9,6.079-.439,11.741.538,16.5,4.685a17.541,17.541,0,0,1,3.807,4.706,1.126,1.126,0,0,1-.512,1.791c-3.149,1.614-6.3,3.217-9.438,4.857-.956.5-1.4.021-1.854-.736a5.9,5.9,0,0,0-5.494-3.207c-2.883.063-4.941,1.52-5.442,4.377a34.592,34.592,0,0,0-.021,11.783,4.951,4.951,0,0,0,4.053,4.424c2.382.444,4.58.016,6.158-2.068a6.52,6.52,0,0,0,.731-1.008c.512-1.034,1.2-1.118,2.167-.6,2.946,1.556,5.9,3.092,8.884,4.57,1.144.564,1.191,1.206.606,2.225a17.248,17.248,0,0,1-10.127,8.1,24.211,24.211,0,0,1-18.1-1.227c-4.831-2.319-7.578-6.377-8.978-11.391-.3-1.06-.679-1.4-1.771-1.389-4.168.063-8.341.083-12.508-.01-1.238-.026-1.609.46-1.776,1.525a18.846,18.846,0,0,1-2.81,7.526,12.2,12.2,0,0,1-7.808,5.547c-4.721,1-9.328.945-13.391-2.22a11.52,11.52,0,0,1-2.2-2.392c-4.789,6.309-9.495,12.5-14.2,18.7Z" transform="translate(-0.612 -16.756)" fill="#fff"/>
        <path id="Path_23775" data-name="Path 23775" d="M893.075,517.9c-.12,4.089-.12,4.089-3.807,4.089-3.181,0-6.361-.021-9.542.01-1,.01-1.546-.225-1.546-1.384q.031-28.469.026-56.944a3.189,3.189,0,0,1,.178-.611c4.941,6.7,9.772,13.245,14.692,19.914a11.729,11.729,0,0,1,7.615-4.774c9.176-1.441,15.893,2.1,18.264,11.511.825,3.285.789,3.3,4.183,3.3,3.7,0,7.406-.021,11.1.016.825.005,1.332-.11,1.541-1.06,1.906-8.7,8.67-13.026,16.922-13.9a26.862,26.862,0,0,1,11.73,1.149c7.009,2.413,10.863,7.442,11.986,14.608a40.432,40.432,0,0,1-.24,14.42c-1.75,8.628-7.531,12.947-15.318,14.347a26.12,26.12,0,0,1-14.733-1.384,16.577,16.577,0,0,1-10.278-11.913c-.266-1.05-.642-1.426-1.755-1.4q-6.565.1-13.135,0c-1.071-.016-1.415.345-1.577,1.342a17.824,17.824,0,0,1-3.974,9.176c-3.828,4.4-8.879,5.05-14.279,4.371A11.913,11.913,0,0,1,893.075,517.9Z" transform="translate(-93.4 -3.143)" fill="#fff"/>
        <path id="Path_23776" data-name="Path 23776" d="M724.245,525.191a36.432,36.432,0,0,1-.292,5.437c-.684,3.311-2.476,4.915-5.63,4.92-3.139.005-5.087-1.6-5.635-4.92a33.61,33.61,0,0,1,.005-10.874c.554-3.369,2.444-4.909,5.625-4.9s4.956,1.593,5.63,4.9A36.544,36.544,0,0,1,724.245,525.191Z" transform="translate(-14.13 -27.948)" fill="#cb4337"/>
        <path id="Path_23777" data-name="Path 23777" d="M1027.322,525.321a27.509,27.509,0,0,1-.36,5.745,5.223,5.223,0,0,1-5.379,4.476c-3.05.042-5.056-1.358-5.641-4.3a30.07,30.07,0,0,1,.068-12.383c.6-2.721,2.57-4.053,5.531-4.011a5.175,5.175,0,0,1,5.385,4.262A28.432,28.432,0,0,1,1027.322,525.321Z" transform="translate(-158.921 -27.947)" fill="#cb4337"/>
        <path id="Path_23778" data-name="Path 23778" d="M918.54,525.367a46.393,46.393,0,0,1-.277,4.977c-.58,3.666-2.549,5.3-6.011,5.2-3.066-.078-5.04-2.058-5.426-5.541a42.855,42.855,0,0,1,.01-9.646c.418-3.63,2.329-5.458,5.6-5.5,3.52-.047,5.614,1.974,5.917,5.834.12,1.551.021,3.118.021,4.674Z" transform="translate(-106.958 -27.952)" fill="#cb4337"/>
      </g>
    </g>
  </g>
</svg>
