<svg xmlns="http://www.w3.org/2000/svg" width="32" height="36.571" viewBox="0 0 32 36.571">
  <g id="mp3" transform="translate(-32)">
    <path id="Path_23761" data-name="Path 23761" d="M98.287,0A2.293,2.293,0,0,0,96,2.286v32a2.292,2.292,0,0,0,2.287,2.286h22.867a2.292,2.292,0,0,0,2.287-2.286V9.143L114.293,0Z" transform="translate(-59.44)" fill="#e2e5e7"/>
    <path id="Path_23762" data-name="Path 23762" d="M354.28,9.12h6.84L352,0V6.84A2.287,2.287,0,0,0,354.28,9.12Z" transform="translate(-297.12)" fill="#b0b7bd"/>
    <path id="Path_23763" data-name="Path 23763" d="M390.84,134.84,384,128h6.84Z" transform="translate(-326.84 -118.852)" fill="#cad1d8"/>
    <path id="Path_23764" data-name="Path 23764" d="M59.44,252.54a1.145,1.145,0,0,1-1.143,1.14H33.143A1.145,1.145,0,0,1,32,252.54v-11.4A1.145,1.145,0,0,1,33.143,240H58.3a1.145,1.145,0,0,1,1.143,1.14Z" transform="translate(0 -222.831)" fill="#50bee8"/>
    <g id="Group_50694" data-name="Group 50694" transform="translate(36.895 21.034)">
      <path id="Path_23765" data-name="Path 23765" d="M101.507,296.708v3.373a.629.629,0,0,1-.657.629.566.566,0,0,1-.546-.629v-5.132a.608.608,0,0,1,.546-.629.755.755,0,0,1,.575.328l2.006,2.707,2.077-2.808a.592.592,0,0,1,1.04.4v5.132a.567.567,0,0,1-.547.629.574.574,0,0,1-.584-.629v-3.373l-1.513,1.915a.6.6,0,0,1-1.039,0Z" transform="translate(-100.304 -294.32)" fill="#fff"/>
      <path id="Path_23766" data-name="Path 23766" d="M210.288,294.949a.627.627,0,0,1,.62-.629h2.106a2.279,2.279,0,0,1,0,4.558h-1.522v1.2a.573.573,0,0,1-.584.629.616.616,0,0,1-.62-.629Zm1.2.52v2.27h1.522a1.136,1.136,0,0,0,0-2.27Z" transform="translate(-202.452 -294.32)" fill="#fff"/>
      <path id="Path_23767" data-name="Path 23767" d="M291.61,296.627h-1.558a.57.57,0,0,1,0-1.139h2.789a.6.6,0,0,1,.4,1.049l-1.513,1.412a1.8,1.8,0,0,1,1.987,1.768c0,1.121-.793,2.078-2.461,2.078a2.16,2.16,0,0,1-1.868-.958.588.588,0,1,1,.993-.629,1.269,1.269,0,0,0,1.029.465c.556,0,1.1-.237,1.1-.958,0-.947-1.158-.8-1.786-.738a.591.591,0,0,1-.546-1.029Z" transform="translate(-275.81 -295.405)" fill="#fff"/>
    </g>
    <path id="Path_23768" data-name="Path 23768" d="M117.736,417.14H96v1.14h21.736a1.145,1.145,0,0,0,1.144-1.14V416A1.145,1.145,0,0,1,117.736,417.14Z" transform="translate(-59.44 -386.268)" fill="#cad1d8"/>
  </g>
</svg>
