<svg id="pdf" xmlns="http://www.w3.org/2000/svg" width="32" height="36.571" viewBox="0 0 32 36.571">
  <path id="Path_32" data-name="Path 32" d="M98.286,0A2.293,2.293,0,0,0,96,2.286v32a2.293,2.293,0,0,0,2.286,2.286h22.861a2.293,2.293,0,0,0,2.286-2.286V9.143L114.289,0Z" transform="translate(-91.433)" fill="#e2e5e7"/>
  <path id="Path_33" data-name="Path 33" d="M354.284,9.134h6.851L352,0V6.851A2.29,2.29,0,0,0,354.284,9.134Z" transform="translate(-329.134)" fill="#b0b7bd"/>
  <path id="Path_34" data-name="Path 34" d="M390.851,134.851,384,128h6.851Z" transform="translate(-358.851 -118.855)" fill="#cad1d8"/>
  <path id="Path_35" data-name="Path 35" d="M59.433,252.56A1.146,1.146,0,0,1,58.29,253.7H33.143A1.146,1.146,0,0,1,32,252.56V241.142A1.146,1.146,0,0,1,33.143,240H58.29a1.146,1.146,0,0,1,1.143,1.142Z" transform="translate(-32 -222.847)" fill="#f15642"/>
  <g id="Group_33" data-name="Group 33" transform="translate(4.988 21.027)">
    <path id="Path_36" data-name="Path 36" d="M101.744,294.95a.628.628,0,0,1,.62-.63h2.109a2.283,2.283,0,0,1,0,4.565h-1.524v1.206a.573.573,0,0,1-.585.629.615.615,0,0,1-.62-.629Zm1.2.52v2.274h1.524a1.138,1.138,0,0,0,0-2.274Z" transform="translate(-101.744 -294.32)" fill="#fff"/>
    <path id="Path_37" data-name="Path 37" d="M188.454,301.789a.571.571,0,0,1-.63-.565v-5.186a.621.621,0,0,1,.63-.566h2.091c4.172,0,4.081,6.317.082,6.317Zm.575-5.2v4.09h1.515c2.465,0,2.575-4.09,0-4.09Z" transform="translate(-181.681 -295.39)" fill="#fff"/>
    <path id="Path_38" data-name="Path 38" d="M288.33,296.645V298.1h2.328a.706.706,0,0,1,.658.647.634.634,0,0,1-.658.548H288.33v1.917a.541.541,0,0,1-.547.565.58.58,0,0,1-.647-.565v-5.186a.577.577,0,0,1,.647-.566h3.2a.569.569,0,0,1,.639.566.631.631,0,0,1-.639.621H288.33Z" transform="translate(-273.906 -295.375)" fill="#fff"/>
  </g>
  <path id="Path_39" data-name="Path 39" d="M117.722,417.142H96v1.142h21.722a1.146,1.146,0,0,0,1.143-1.142V416A1.146,1.146,0,0,1,117.722,417.142Z" transform="translate(-91.433 -386.279)" fill="#cad1d8"/>
</svg>
