<svg xmlns="http://www.w3.org/2000/svg" width="16.181" height="20" viewBox="0 0 16.181 20">
  <g id="place" transform="translate(-48.886)">
    <g id="Group_50624" data-name="Group 50624" transform="translate(48.886)">
      <g id="Group_50623" data-name="Group 50623">
        <path id="Path_23757" data-name="Path 23757" d="M63.615,3.477a8.075,8.075,0,0,0-13.277,0,8.077,8.077,0,0,0-.94,7.441,6.361,6.361,0,0,0,1.172,1.935l5.874,6.9a.7.7,0,0,0,1.065,0l5.873-6.9a6.367,6.367,0,0,0,1.172-1.933A8.078,8.078,0,0,0,63.615,3.477Zm-.371,6.956a4.988,4.988,0,0,1-.922,1.511l0,0-5.342,6.274-5.345-6.278a4.992,4.992,0,0,1-.924-1.515,6.681,6.681,0,0,1,.781-6.156,6.677,6.677,0,0,1,10.976,0A6.682,6.682,0,0,1,63.244,10.433Z" transform="translate(-48.886 0)" fill="#cb4337"/>
      </g>
    </g>
    <g id="Group_50626" data-name="Group 50626" transform="translate(53.019 4.121)">
      <g id="Group_50625" data-name="Group 50625">
        <path id="Path_23758" data-name="Path 23758" d="M159.712,106.219a3.958,3.958,0,1,0,3.958,3.958A3.962,3.962,0,0,0,159.712,106.219Zm0,6.5a2.544,2.544,0,1,1,2.544-2.544A2.547,2.547,0,0,1,159.712,112.721Z" transform="translate(-155.754 -106.219)" fill="#cb4337"/>
      </g>
    </g>
  </g>
</svg>
