<svg id="restaurant" xmlns="http://www.w3.org/2000/svg" width="32" height="32" viewBox="0 0 32 32">
  <g id="Group_50619" data-name="Group 50619" transform="translate(1.877 20.353)">
    <g id="Group_50618" data-name="Group 50618">
      <path id="Path_23751" data-name="Path 23751" d="M57.421,327.1a2.812,2.812,0,0,0-3.976,0l-2.877,2.881a2.817,2.817,0,0,0-2.633-1.829H44.892c-.432,0-.622-.237-1.06-.622a6.557,6.557,0,0,0-9.288.622H30.937a.938.938,0,0,0-.937.939v7.51a.938.938,0,0,0,.937.939H49.809a2.791,2.791,0,0,0,1.988-.825l5.624-5.632A2.822,2.822,0,0,0,57.421,327.1ZM33.874,335.66h-2v-5.632h2ZM56.1,329.753l-5.624,5.632a.943.943,0,0,1-.663.275H35.749v-6.02a4.687,4.687,0,0,1,6.846-.7,3.213,3.213,0,0,0,2.3,1.09h3.042a.939.939,0,0,1,0,1.877H44.105a2.818,2.818,0,0,0-2.279,1.166.938.938,0,1,0,1.519,1.1.939.939,0,0,1,.759-.389h4.928a.936.936,0,0,0,.663-.275l5.075-5.082a.938.938,0,0,1,1.325,1.327Z" transform="translate(-30 -325.891)" fill="#cb4337"/>
    </g>
  </g>
  <g id="Group_50621" data-name="Group 50621">
    <g id="Group_50620" data-name="Group 50620">
      <path id="Path_23752" data-name="Path 23752" d="M31.063,17.022h-.969A14.214,14.214,0,0,0,18.618,3.99a2.813,2.813,0,1,0-5.111,0,14.316,14.316,0,0,0-11.6,13.032H.938a.939.939,0,0,0,0,1.877H31.063a.939.939,0,0,0,0-1.877Zm-15-15.144a.939.939,0,1,1-.938.939A.939.939,0,0,1,16.063,1.877ZM3.787,17.022A12.514,12.514,0,0,1,16.063,5.62a12.273,12.273,0,0,1,12.152,11.4Z" fill="#cb4337"/>
    </g>
  </g>
</svg>
