<svg xmlns="http://www.w3.org/2000/svg" width="32" height="32" viewBox="0 0 32 32">
  <g id="transparency" transform="translate(0 0)">
    <path id="Path_23753" data-name="Path 23753" d="M7.875,20.148,0,28.022,3.978,32l7.875-7.875L10.527,22.8l1.351-1.351a12.189,12.189,0,1,0-1.326-1.326L9.2,21.474ZM12.516,4.9a10.314,10.314,0,1,1,0,14.586A10.308,10.308,0,0,1,12.516,4.9ZM3.978,29.348,2.652,28.022,7.875,22.8,9.2,24.126Z" transform="translate(0 0)" fill="#cb4337"/>
    <path id="Path_23754" data-name="Path 23754" d="M193.693,125.379l.561-.626-.561-.626c-.149-.166-3.692-4.066-8.206-4.066s-8.057,3.9-8.206,4.066l-.561.626.561.626c.149.166,3.692,4.066,8.206,4.066C188.567,129.444,191.83,127.459,193.693,125.379Zm-8.206-3.441c2.682,0,5.067,1.824,6.167,2.816-1.1.993-3.473,2.814-6.167,2.814s-5.068-1.824-6.167-2.816C180.416,123.759,182.794,121.938,185.487,121.938Z" transform="translate(-165.691 -112.559)" fill="#cb4337"/>
    <path id="Path_23755" data-name="Path 23755" d="M271.856,152.876a2.815,2.815,0,1,0,2.815-2.815A2.813,2.813,0,0,0,271.856,152.876Zm3.753,0a.938.938,0,1,1-.938-.938A.939.939,0,0,1,275.609,152.876Z" transform="translate(-254.866 -140.683)" fill="#cb4337"/>
  </g>
</svg>
