<svg xmlns="http://www.w3.org/2000/svg" width="28.086" height="28.086" viewBox="0 0 28.086 28.086">
  <path id="Send" d="M18.615,28.086a2.707,2.707,0,0,1-2.229-1.147l-.127-.192-5.61-9.3-9.326-5.74a2.784,2.784,0,0,1,.459-4.966L2,6.674,24.548.112A2.809,2.809,0,0,1,25.329,0a2.779,2.779,0,0,1,2.69,3.374l-.052.2L21.278,26.1A2.76,2.76,0,0,1,18.615,28.086ZM19.6,7.377a1.07,1.07,0,0,1,.639.209l.122.1A1.087,1.087,0,0,1,20.466,9.1l-.1.122L12.8,16.832l5.312,8.8a.591.591,0,0,0,.515.3.6.6,0,0,0,.539-.329l.044-.11L25.9,2.96a.617.617,0,0,0-.1-.55.608.608,0,0,0-.484-.247.591.591,0,0,0-.062,0l-.1.021L2.6,8.748a.6.6,0,0,0-.423.45.622.622,0,0,0,.181.6l.095.071L11.275,15.3l7.554-7.6A1.075,1.075,0,0,1,19.6,7.377Z" transform="translate(0 0)" fill="#200e32"/>
</svg>
