<svg xmlns="http://www.w3.org/2000/svg" width="32" height="30.562" viewBox="0 0 32 30.562">
  <path id="success" d="M31.746,15.028l-2.649-3.5.085-4.391a1.25,1.25,0,0,0-.887-1.22l-4.2-1.273-2.508-3.6A1.25,1.25,0,0,0,20.147.57L16,2.014,11.851.57a1.25,1.25,0,0,0-1.437.467l-2.508,3.6L3.7,5.915a1.25,1.25,0,0,0-.887,1.22L2.9,11.526l-2.649,3.5a1.25,1.25,0,0,0,0,1.508l2.649,3.5-.085,4.391a1.249,1.249,0,0,0,.887,1.22l4.2,1.273,2.508,3.6a1.25,1.25,0,0,0,1.437.467L16,29.55l4.148,1.443a1.25,1.25,0,0,0,1.437-.467l2.508-3.6,4.2-1.273a1.25,1.25,0,0,0,.887-1.22L29.1,20.038l2.649-3.5a1.25,1.25,0,0,0,0-1.508Zm-4.9,3.847a1.252,1.252,0,0,0-.253.779l.075,3.877-3.713,1.125a1.25,1.25,0,0,0-.664.482l-2.214,3.183L16.41,27.046a1.248,1.248,0,0,0-.822,0l-3.663,1.275L9.71,25.138a1.25,1.25,0,0,0-.664-.482L5.334,23.531l.075-3.877a1.25,1.25,0,0,0-.253-.778l-2.34-3.093,2.34-3.093a1.249,1.249,0,0,0,.253-.779L5.334,8.033,9.046,6.909a1.25,1.25,0,0,0,.664-.482l2.214-3.183,3.664,1.275a1.25,1.25,0,0,0,.822,0l3.663-1.275,2.215,3.183a1.251,1.251,0,0,0,.664.482l3.713,1.125-.075,3.877a1.25,1.25,0,0,0,.253.778l2.34,3.093ZM22.432,11.2a1.25,1.25,0,0,1,0,1.768l-7.4,7.4a1.25,1.25,0,0,1-1.768,0l-3.7-3.7A1.25,1.25,0,1,1,11.334,14.9l2.816,2.815L20.664,11.2a1.25,1.25,0,0,1,1.768,0Zm0,0" transform="translate(0.001 -0.501)" fill="#cb4337"/>
</svg>
