<svg xmlns="http://www.w3.org/2000/svg" width="40" height="32.5" viewBox="0 0 40 32.5">
  <path id="twitter" d="M40,51.848a17.1,17.1,0,0,1-4.725,1.3,8.154,8.154,0,0,0,3.608-4.533,16.388,16.388,0,0,1-5.2,1.985A8.2,8.2,0,0,0,19.5,56.2a8.444,8.444,0,0,0,.19,1.87A23.211,23.211,0,0,1,2.785,49.5,8.2,8.2,0,0,0,5.3,60.455,8.1,8.1,0,0,1,1.6,59.445v.09a8.238,8.238,0,0,0,6.57,8.058,8.185,8.185,0,0,1-2.15.27,7.251,7.251,0,0,1-1.553-.14,8.278,8.278,0,0,0,7.663,5.713,16.477,16.477,0,0,1-10.168,3.5A15.359,15.359,0,0,1,0,76.82,23.086,23.086,0,0,0,12.58,80.5c15.09,0,23.34-12.5,23.34-23.335,0-.363-.013-.712-.03-1.06A16.359,16.359,0,0,0,40,51.848Z" transform="translate(0 -48)" fill="#03a9f4"/>
</svg>
